<?xml version="1.0" ?><!-- Uploaded to: SVG Repo, www.svgrepo.com, Generator: SVG Repo Mixer Tools -->
<svg fill="#000000" width="800px" height="800px" viewBox="0 0 24 24" id="Layer_2" version="1.1" xml:space="preserve" xmlns="http://www.w3.org/2000/svg" xmlns:xlink="http://www.w3.org/1999/xlink"><path d="M17.396,3H6.604c-1.39,0-2.521,1.131-2.521,2.521v12.959c0,1.39,1.131,2.521,2.521,2.521h10.792  c1.39,0,2.521-1.131,2.521-2.521V5.521C19.917,4.131,18.786,3,17.396,3z M18.917,18.479c0,0.839-0.682,1.521-1.521,1.521H6.604  c-0.838,0-1.521-0.682-1.521-1.521V5.521C5.083,4.682,5.766,4,6.604,4h10.792c0.838,0,1.521,0.682,1.521,1.521V18.479z"/><path d="M16.5,5.063h-9c-0.827,0-1.5,0.673-1.5,1.5v4c0,0.827,0.673,1.5,1.5,1.5h9c0.827,0,1.5-0.673,1.5-1.5v-4  C18,5.735,17.327,5.063,16.5,5.063z M17,10.563c0,0.275-0.224,0.5-0.5,0.5h-9c-0.276,0-0.5-0.225-0.5-0.5v-4  c0-0.275,0.224-0.5,0.5-0.5h9c0.276,0,0.5,0.225,0.5,0.5V10.563z"/><path d="M8.542,15.542H8V15c0-0.276-0.224-0.5-0.5-0.5S7,14.724,7,15v0.542H6.458c-0.276,0-0.5,0.224-0.5,0.5s0.224,0.5,0.5,0.5H7  v0.541c0,0.276,0.224,0.5,0.5,0.5s0.5-0.224,0.5-0.5v-0.541h0.542c0.276,0,0.5-0.224,0.5-0.5S8.818,15.542,8.542,15.542z"/><path d="M16.5,13.958c-0.712,0-1.292,0.579-1.292,1.292s0.58,1.292,1.292,1.292s1.292-0.579,1.292-1.292S17.212,13.958,16.5,13.958z   M16.5,15.542c-0.161,0-0.292-0.131-0.292-0.292s0.131-0.292,0.292-0.292s0.292,0.131,0.292,0.292S16.661,15.542,16.5,15.542z"/><path d="M14.396,16.583c-0.712,0-1.292,0.579-1.292,1.292s0.58,1.292,1.292,1.292c0.712,0,1.292-0.579,1.292-1.292  S15.108,16.583,14.396,16.583z M14.396,18.167c-0.161,0-0.292-0.131-0.292-0.292s0.131-0.292,0.292-0.292  c0.161,0,0.292,0.131,0.292,0.292S14.557,18.167,14.396,18.167z"/><path d="M13.667,13.583c0-0.276-0.224-0.5-0.5-0.5h-2.458c-0.276,0-0.5,0.224-0.5,0.5s0.224,0.5,0.5,0.5h2.458  C13.443,14.083,13.667,13.859,13.667,13.583z"/></svg>